<svg width="261" height="285" viewBox="0 0 261 285" fill="none" xmlns="http://www.w3.org/2000/svg">
    <path
        d="M160.66 17.7334C181.492 13.272 212.681 7.01564 223.297 25.4769C236.208 47.9295 200.509 76.0603 208.387 100.731C214.964 121.331 252.971 118.648 259.617 139.227C265.45 157.29 251.829 178.457 237.519 190.937C223.2 203.423 198.858 195.026 183.233 205.836C168.529 216.009 166.777 237.884 153.069 249.363C135.408 264.152 111.205 295.447 92.8676 281.506C69.2408 263.544 96.8708 219.408 80.8302 194.444C70.998 179.142 42.8816 192.569 28.5345 181.384C13.5403 169.694 -4.56135 150.402 1.0432 132.241C7.44001 111.512 45.9367 116.624 54.6502 96.7561C64.279 74.8012 29.0244 41.2638 47.5963 26.0944C65.7185 11.2923 89.6567 50.8245 112.997 49.0985C132.209 47.6778 141.824 21.7674 160.66 17.7334Z"
        fill="#98BFFD" />
    <path
        d="M175.231 8.34781C175.231 8.34781 193.702 12.8013 201.015 21.396C208.328 29.9908 205.814 52.1432 203.907 64.8957C202.001 77.6481 196.89 86.8673 202.938 91.3208C208.985 95.7743 211.155 91.6495 211.155 91.6495C211.155 91.6495 202.938 105.651 194.277 107.574C185.617 109.496 173.571 98.6502 171.665 89.1023C169.758 79.5544 168.477 65.2079 170.021 55.3313C171.566 45.4548 174.59 42.1023 176.118 35.4139C177.647 28.7254 176.43 17.5835 176.43 17.5835L175.231 8.34781Z"
        fill="#3B2645" />
    <path
        d="M148.478 249.938C185.417 249.938 215.362 224.841 215.362 193.883C215.362 162.924 185.417 137.828 148.478 137.828C111.538 137.828 81.5932 162.924 81.5932 193.883C81.5932 224.841 111.538 249.938 148.478 249.938Z"
        fill="#AB8DA8" />
    <path
        d="M91.7494 62.0694L90.2868 61.0998L83.4669 50.8782L88.9228 39.8677L101.182 39.0624L102.645 40.0484L91.7494 62.0694Z"
        fill="#393762" />
    <path
        d="M104.008 61.2804L91.7487 62.0692L84.9288 51.8475L90.3683 40.837L102.644 40.0482L109.448 50.2699L104.008 61.2804Z"
        fill="#636183" />
    <path
        d="M133.523 57.4186C130.458 60.8 127.84 64.5612 125.734 68.6099C121.593 76.1693 111.125 86.6868 109.185 88.8232C108.272 89.9719 107.101 90.8896 105.767 91.5018C103.921 86.0959 102.46 80.5658 101.396 74.9532C100.426 68.3798 98.9637 55.463 98.9637 55.463L102.858 47.6735C102.858 47.6735 99.6868 41.3302 98.4707 40.8701C97.2546 40.4099 94.8224 41.1001 91.1742 44.2718C87.5259 47.4435 86.0469 50.5987 87.756 54.477C89.4651 58.3554 93.1133 62.2665 92.6861 68.5935C92.2588 74.9204 92.456 97.0892 94.6417 104.386C96.8273 111.682 96.5973 111.699 99.5717 111.699C102.546 111.699 111.075 108.034 120.032 103.482C125.277 100.862 129.73 96.891 132.932 91.9784L133.523 57.4186Z"
        fill="#FFEDE5" />
    <path
        d="M152.027 53.5343C147.941 52.8396 143.76 52.9177 139.702 53.7644C133.654 55.227 130.516 59.0888 129.3 66.106C128.084 73.1231 123.745 81.8329 126.654 88.4063C129.563 94.9797 132.208 100.025 132.455 105.333C132.573 110.399 132.337 115.468 131.748 120.501C131.267 121.507 130.718 122.479 130.105 123.41C130.105 123.41 129.612 127.272 117.517 123.886C105.422 120.501 89.9577 121.471 74.0007 125.102C58.0437 128.734 49.5804 131.676 48.8574 136.951C48.1343 142.226 48.1343 175.143 49.5804 184.822C50.3938 191.339 50.2331 197.941 49.1039 204.411C45.0961 207.2 40.7983 209.547 36.2857 211.411C29.5151 214.074 25.6532 215.52 26.8528 217.985C28.0525 220.45 32.6539 220.894 38.4549 220.894C44.256 220.894 52.2427 220.417 52.2427 220.417C52.2427 220.417 44.9955 225.002 40.1476 228.141C35.2997 231.28 30.7312 232.019 32.9004 235.404C35.0696 238.79 55.9074 237.82 60.9525 237.82C65.9976 237.82 71.8315 235.881 72.308 233.712C72.7846 231.543 70.8619 224.032 70.8619 221.14C70.8619 218.248 70.1388 205.413 73.0311 199.612C75.9234 193.811 80.2947 176.885 80.0482 170.36C79.8017 163.836 79.3252 159.728 79.3252 159.728C79.3252 159.728 107.098 163.54 117.944 167.402C128.79 171.264 152.997 174.419 164.369 168.865C175.741 163.31 180.326 156.523 178.633 146.86C176.94 137.198 172.339 130.903 173.555 119.531C174.771 108.159 174.755 97.0503 177.664 91.4958C180.572 85.9413 187.096 76.0154 186.603 69.4913C186.11 62.9672 174.032 56.3444 167.984 54.0109C161.937 51.6773 152.027 53.5343 152.027 53.5343Z"
        fill="#FFEDE5" />
    <path
        d="M48.7918 137.532C48.0687 142.84 48.0687 175.724 49.5149 185.403C50.3282 191.92 50.1676 198.522 49.0383 204.992C45.0305 207.781 40.7328 210.128 36.2201 211.993C29.4495 214.655 25.5876 216.101 26.7873 218.566C27.9869 221.031 32.5883 221.475 38.3894 221.475C43.3194 221.475 49.7778 221.13 51.6348 221.015C52.8016 220.637 55.0859 219.832 55.0859 219.372C55.0859 218.911 57.0086 201.295 57.2551 184.302C57.5016 167.31 59.4408 147.688 59.4408 147.688L57.2715 138.979C55.2813 137.109 53.1374 135.411 50.8624 133.901C49.7567 134.822 49.0213 136.112 48.7918 137.532V137.532Z"
        fill="#FFEDE5" />
    <path
        d="M54.5929 212.962C54.5929 212.962 53.8698 211.319 52.6537 208.131C52.4395 207.303 51.9793 206.56 51.3337 206C50.6882 205.439 49.8878 205.088 49.0383 204.992C45.0305 207.781 40.7328 210.128 36.2201 211.993C29.4495 214.655 25.5876 216.101 26.7873 218.566C27.9869 221.031 32.5883 221.475 38.3894 221.475C43.3194 221.475 49.7778 221.13 51.6348 221.015C52.8016 220.637 55.0859 219.832 55.0859 219.372C55.0859 219.109 55.3159 216.742 55.6446 213.077L54.5929 212.962Z"
        fill="#3B2645" />
    <path
        d="M147.919 131.961C141.692 128.683 136.27 124.064 132.044 118.436C131.913 119.866 131.798 120.868 131.732 121.082C131.251 122.088 130.702 123.06 130.089 123.991C130.089 123.991 129.596 127.853 117.501 124.467C105.406 121.082 89.9415 122.052 73.9845 125.683C58.0276 129.315 49.5643 132.257 48.8412 137.532C48.8412 137.779 48.8412 138.091 48.7426 138.452C49.6735 139.81 50.6775 141.115 51.75 142.364C53.8554 144.723 56.4915 146.548 59.4409 147.688C60.1804 151.073 64.7653 161.706 71.536 161.706C78.3066 161.706 79.2762 160.26 79.2762 160.26C79.2762 160.26 107.098 164.122 117.944 167.983C128.79 171.845 152.997 175.001 164.369 169.446C175.741 163.891 180.326 157.104 178.633 147.441C177.882 143.729 176.877 140.072 175.626 136.497C168.264 136.891 156.399 136.645 147.919 131.961Z"
        fill="#3B2645" />
    <path
        d="M131.748 121.082C131.267 122.088 130.718 123.06 130.105 123.991C130.105 123.991 129.612 127.853 117.517 124.468C105.421 121.082 89.9575 122.052 74.0005 125.684C58.0435 129.316 49.5803 132.257 48.8572 137.532C48.7093 138.601 48.5943 140.819 48.5121 143.662C51.6915 146.028 55.4861 147.426 59.4404 147.688C61.1702 144.701 63.6665 142.231 66.6713 140.532C69.676 138.833 73.08 137.968 76.5313 138.025C88.7579 138.025 140.441 138.979 140.441 138.979L147.343 123.252C147.343 123.252 139.127 117.451 132.372 113.671C132.159 117.385 131.863 120.672 131.748 121.082Z"
        fill="#3B2645" />
    <path
        d="M173.653 122.348C174.278 119.669 186.603 105.503 187.836 100.573C189.068 95.6432 193.587 80.6393 189.479 72.0117C185.371 63.3841 180.227 61.3299 180.227 61.3299C176.452 58.5553 172.344 56.2642 168 54.51C161.969 52.0943 152.043 54.0334 152.043 54.0334C147.957 53.3388 143.776 53.4168 139.718 54.2635C133.671 55.7261 130.532 59.588 129.316 66.6051C128.1 73.6222 123.745 82.4142 126.653 88.9876C129.562 95.561 132.208 100.606 132.455 105.914C132.573 110.98 132.337 116.049 131.748 121.082C131.267 122.088 130.718 123.06 130.105 123.991V124.09C131.896 127.787 136.004 135.593 140.523 138.978C144.766 139.109 148.845 140.64 152.125 143.333C157.056 147.688 163.021 148.641 169.545 148.641C172.641 148.518 175.705 147.965 178.649 146.998C177.006 138.387 173.21 132.389 173.473 122.89C173.569 122.723 173.63 122.539 173.653 122.348V122.348Z"
        fill="#AB8DA8" />
    <path
        d="M171.024 39.5061C171.024 39.5061 177.088 30.1883 178.058 22.218C179.027 14.2478 177.581 6.8198 168.872 2.15267C160.162 -2.51446 147.344 2.15267 143.482 6.8198C139.62 11.4869 140.096 20.361 139.127 22.3002C138.157 24.2394 133.802 27.3782 134.295 28.5943C134.788 29.8103 137.927 31.4701 137.927 31.4701L139.571 38.9638C140.047 41.1495 141.493 44.0418 143.186 44.0418C145.487 43.8019 147.77 43.4177 150.022 42.8914C150.022 42.8914 150.499 50.4509 149.069 53.4911C147.146 57.5995 137.237 82.2169 141.592 84.7148C145.947 87.2127 164.369 67.8869 169.677 63.7785C174.985 59.6701 168.033 54.5921 168.033 54.5921C168.033 54.5921 165.651 54.4935 166.62 48.446C167.046 45.0569 168.597 41.9088 171.024 39.5061Z"
        fill="#FFEDE5" />
    <path
        d="M60.8868 238.352C65.9647 238.352 71.7658 236.413 72.2424 234.244C72.6368 232.502 71.4864 227.391 70.9934 223.907C69.9926 224.266 68.9477 224.487 67.8875 224.565C65.2926 224.654 62.697 224.411 60.1637 223.841C60.1063 222.841 59.861 221.859 59.4406 220.949C58.7175 219.306 55.1022 219.306 55.1022 219.306L51.1088 221.048H52.1934C52.1934 221.048 44.9462 225.633 40.0983 228.772C35.2504 231.91 30.6819 232.65 32.8511 236.035C35.0204 239.42 55.8088 238.352 60.8868 238.352Z"
        fill="#3B2645" />
    <path
        d="M181.181 23.8942C182.134 15.924 177.582 6.81976 168.872 2.15264C161.592 -1.69282 151.469 0.903685 146.046 4.5355C147.13 4.73182 148.105 5.31596 148.79 6.17885C152.29 10.0079 150.433 17.0086 153.572 20.1967C156.711 23.3848 158.338 22.4316 158.338 22.4316C158.338 22.4316 161.855 16.6963 163.432 22.4316C165.01 28.1669 162.808 30.6484 161.214 31.3386C160.08 31.7656 158.908 32.0847 157.713 32.2918C157.713 32.2918 166.259 39.8348 171.025 39.5718C171.025 39.5061 180.211 31.8809 181.181 23.8942Z"
        fill="#3B2645" />
    <path
        d="M95.9398 65.5202L94.4936 64.5342L87.6737 54.3126L93.1132 43.3021L105.373 42.5133L106.835 43.4829L95.9398 65.5202Z"
        fill="#393762" />
    <path
        d="M108.215 64.715L95.9391 65.5203L89.1356 55.2822L94.5751 44.2717L106.835 43.4829L113.654 53.7045L108.215 64.715Z"
        fill="#636183" />
    <path
        d="M193.521 157.104C191.814 153.084 190.824 148.796 190.596 144.434C190.596 139.981 185.485 128.494 185.485 125.946C186.177 115.94 187.406 105.978 189.166 96.1031C191.96 86.7031 191.73 76.5307 189.479 72.0115C187.227 67.4923 178.172 68.314 175.707 75.7091C173.242 83.1042 173.39 97.4507 173.39 97.4507C172.568 103.893 172.01 118.256 171.747 126.883C171.566 134.558 173.193 142.298 176.874 147.819C182.084 155.642 184.549 165.896 186.143 165.896C187.737 165.896 196.183 164.845 196.183 164.845C196.183 164.845 196.627 163.974 193.521 157.104Z"
        fill="#FFEDE5" />
    <path
        d="M198.075 173.226C198.075 173.226 199.718 164.319 199.356 162.396C198.995 160.474 193.621 161.772 191.386 161.772C189.151 161.772 187.574 161.443 187.886 162.725C188.198 164.007 192.668 164.368 192.668 164.368L194.311 164.993L198.075 173.226Z"
        fill="#FFEDE5" />
    <path d="M209.002 166.915H176.2V171.369H209.002V166.915Z" fill="#636183" />
    <path d="M221.097 157.055H206.767V180.621H221.097V157.055Z" fill="#636183" />
    <path d="M176.825 157.055H162.495V180.621H176.825V157.055Z" fill="#636183" />
    <path
        d="M182.248 163.415L184.039 172.157C184.157 172.741 184.481 173.264 184.951 173.629C185.422 173.994 186.008 174.177 186.603 174.146C188.838 174.014 192.305 173.817 194.343 173.604C197.531 173.291 198.485 174.244 198.813 171.96C198.961 170.81 199.208 168.674 199.421 166.866C199.464 166.47 199.421 166.07 199.295 165.692C199.17 165.314 198.964 164.968 198.693 164.676C198.422 164.385 198.091 164.155 197.724 164.003C197.356 163.85 196.96 163.779 196.562 163.793C194.08 163.793 190.958 163.99 190.202 163.99C188.937 164.056 184.795 160.555 182.248 163.415Z"
        fill="#FFEDE5" />
</svg>
