<svg width="33" height="41" viewBox="0 0 33 41" fill="none" xmlns="http://www.w3.org/2000/svg">
    <defs>
        <linearGradient id="paint0_linear_62_1829" x1="4.98533" y1="36.8774" x2="-1.11989"
            y2="36.5942" gradientUnits="userSpaceOnUse">
            <stop stop-color="#92A3FD" />
            <stop offset="1" stop-color="#9DCEFF" />
        </linearGradient>
        <linearGradient id="paint1_linear_62_1829" x1="3.69011" y1="34.6358" x2="1.42137"
            y2="34.2106" gradientUnits="userSpaceOnUse">
            <stop stop-color="#92A3FD" />
            <stop offset="1" stop-color="#9DCEFF" />
        </linearGradient>
        <linearGradient id="paint2_linear_62_1829" x1="3.93197" y1="33.7556" x2="1.66984"
            y2="33.3698" gradientUnits="userSpaceOnUse">
            <stop stop-color="#92A3FD" />
            <stop offset="1" stop-color="#9DCEFF" />
        </linearGradient>
        <linearGradient id="paint3_linear_62_1829" x1="30.4675" y1="39.9132" x2="19.6205"
            y2="38.5579" gradientUnits="userSpaceOnUse">
            <stop stop-color="#92A3FD" />
            <stop offset="1" stop-color="#9DCEFF" />
        </linearGradient>
        <linearGradient id="paint4_linear_62_1829" x1="26.9105" y1="37.0035" x2="24.8025"
            y2="36.6874" gradientUnits="userSpaceOnUse">
            <stop stop-color="#92A3FD" />
            <stop offset="1" stop-color="#9DCEFF" />
        </linearGradient>
        <linearGradient id="paint5_linear_62_1829" x1="27.7714" y1="37.5477" x2="25.4396"
            y2="37.1672" gradientUnits="userSpaceOnUse">
            <stop stop-color="#92A3FD" />
            <stop offset="1" stop-color="#9DCEFF" />
        </linearGradient>
        <linearGradient id="paint6_linear_62_1829" x1="28.7227" y1="38.0228" x2="26.4214"
            y2="37.6543" gradientUnits="userSpaceOnUse">
            <stop stop-color="#92A3FD" />
            <stop offset="1" stop-color="#9DCEFF" />
        </linearGradient>
        <linearGradient id="paint7_linear_62_1829" x1="26.6755" y1="38.5575" x2="-2.11994"
            y2="36.0858" gradientUnits="userSpaceOnUse">
            <stop stop-color="#92A3FD" />
            <stop offset="1" stop-color="#9DCEFF" />
        </linearGradient>
        <linearGradient id="paint8_linear_62_1829" x1="10.1374" y1="24.7295" x2="8.54611"
            y2="24.6078" gradientUnits="userSpaceOnUse">
            <stop stop-color="#92A3FD" />
            <stop offset="1" stop-color="#9DCEFF" />
        </linearGradient>
        <clipPath id="clip0_62_1829">
            <rect width="32.7556" height="40.3836" fill="white"
                transform="translate(-9.15527e-05 0.000244141)" />
        </clipPath>
    </defs>
    <g clip-path="url(#clip0_62_1829)">
        <g opacity="0.3">
            <path opacity="0.3"
                d="M8.21252 24.7038H8.19262L7.42852 24.4817C7.4023 24.4735 7.38027 24.4552 7.36714 24.4306C7.35402 24.4061 7.35085 24.3772 7.35831 24.3503C7.36577 24.3234 7.38328 24.3005 7.40706 24.2866C7.43085 24.2727 7.45903 24.2689 7.48556 24.2759L8.24435 24.4953C8.26841 24.5033 8.28881 24.52 8.30176 24.5422C8.31472 24.5644 8.31936 24.5906 8.31483 24.6161C8.3103 24.6415 8.29691 24.6644 8.27713 24.6805C8.25734 24.6966 8.23251 24.7049 8.20721 24.7038H8.21252Z"
                fill="black" />
            <path opacity="0.3"
                d="M7.42855 25.305C7.40693 25.303 7.38643 25.2943 7.36982 25.28C7.35322 25.2657 7.3413 25.2466 7.33569 25.2252C7.33151 25.2111 7.3302 25.1963 7.33186 25.1817C7.33351 25.1672 7.33809 25.1531 7.34531 25.1404C7.35252 25.1277 7.36223 25.1166 7.37381 25.1079C7.38539 25.0992 7.39861 25.093 7.41264 25.0898L8.17674 24.8921C8.20325 24.8862 8.23095 24.8911 8.25401 24.9057C8.27708 24.9202 8.29371 24.9434 8.30041 24.9702C8.30711 24.997 8.30336 25.0255 8.28994 25.0495C8.27653 25.0736 8.25449 25.0914 8.22847 25.0992L7.46304 25.2969C7.45209 25.3016 7.44042 25.3044 7.42855 25.305V25.305Z"
                fill="black" />
            <path opacity="0.3"
                d="M7.81864 26.0255C7.79347 26.023 7.76998 26.0115 7.75231 25.993C7.73295 25.973 7.72209 25.946 7.72209 25.9179C7.72209 25.8898 7.73295 25.8628 7.75231 25.8427L8.31743 25.2808C8.32705 25.27 8.33873 25.2613 8.35176 25.2553C8.36479 25.2492 8.37889 25.246 8.3932 25.2457C8.4075 25.2455 8.42171 25.2482 8.43494 25.2538C8.44816 25.2594 8.46014 25.2676 8.47012 25.2781C8.4801 25.2885 8.48787 25.301 8.49296 25.3146C8.49805 25.3283 8.50035 25.3428 8.49972 25.3574C8.49908 25.372 8.49553 25.3863 8.48928 25.3995C8.48302 25.4126 8.4742 25.4243 8.46335 25.4338L7.90089 25.9985C7.88976 26.0085 7.8767 26.0161 7.86255 26.0208C7.84839 26.0255 7.83344 26.0271 7.81864 26.0255V26.0255Z"
                fill="black" />
            <path opacity="0.3"
                d="M8.50431 26.4518H8.48441C8.47086 26.448 8.45821 26.4413 8.44722 26.4324C8.43623 26.4234 8.42712 26.4123 8.42044 26.3996C8.41375 26.387 8.40963 26.3731 8.40831 26.3588C8.407 26.3445 8.40851 26.3301 8.41277 26.3164L8.62237 25.5419C8.63038 25.5151 8.64835 25.4926 8.67242 25.4792C8.69649 25.4658 8.72474 25.4626 8.75112 25.4702C8.7775 25.4778 8.7999 25.4957 8.81353 25.52C8.82715 25.5443 8.83091 25.573 8.82401 25.6001L8.6091 26.3746C8.6026 26.3976 8.58874 26.4177 8.56975 26.4317C8.55075 26.4457 8.52771 26.4528 8.50431 26.4518Z"
                fill="black" />
        </g>
        <path
            d="M29.2281 14.4277L27.3271 15.5449L23.1644 16.1596C23.1644 16.1596 20.1252 11.4989 19.6596 10.7664C19.194 10.0338 18.6487 9.56396 17.3872 9.56531L17.626 13.2836C17.6658 13.4041 20.1822 16.5685 21.8418 18.2936C22.4281 18.9016 22.7876 19.0573 23.699 18.7973C26.0377 18.1352 28.8726 16.1731 29.1007 15.683C29.4072 15.0425 29.2055 14.4413 29.2281 14.4277Z"
            fill="#FFEDE5" />
        <path
            d="M28.4465 12.0705C28.6959 11.2391 29.7147 10.5621 30.6606 10.8329C30.8104 10.8752 30.954 10.9376 31.0877 11.0184C32.0163 11.5601 32.7552 12.8803 32.7552 13.9662C32.7583 14.1496 32.7332 14.3324 32.6809 14.5078V14.5078C32.4329 15.3379 31.4167 16.0203 30.4669 15.7482C30.3173 15.7053 30.1737 15.643 30.0397 15.5627C29.1191 15.021 28.3723 13.6995 28.3723 12.6135C28.3696 12.4297 28.3946 12.2466 28.4465 12.0705Z"
            fill="#455A64" />
        <path
            d="M30.0412 15.5545C29.1206 15.0128 28.3737 13.6913 28.3737 12.6053C28.3737 11.5193 29.1206 11.0806 30.0412 11.6223C30.9619 12.1639 31.7047 13.4841 31.7047 14.5701C31.7047 15.656 30.9619 16.0961 30.0412 15.5545Z"
            fill="#37474F" />
        <path
            d="M30.041 12.826C29.6868 12.6174 29.399 12.7867 29.399 13.2038C29.411 13.4311 29.4754 13.6523 29.587 13.8495C29.6986 14.0467 29.8541 14.2142 30.041 14.3385C30.3952 14.547 30.6817 14.3777 30.6817 13.9607C30.67 13.7334 30.6058 13.5122 30.4944 13.315C30.3831 13.1179 30.2278 12.9503 30.041 12.826V12.826Z"
            fill="#455A64" />
        <path
            d="M29.8209 13.4532C29.8252 13.5311 29.8473 13.6068 29.8856 13.6743C29.9238 13.7418 29.9771 13.7992 30.0411 13.8418C30.0622 13.8573 30.0866 13.8672 30.1123 13.8707C30.1379 13.8743 30.1641 13.8713 30.1884 13.8621L30.2043 13.8526C30.2233 13.836 30.2382 13.8152 30.2478 13.7917C30.2575 13.7682 30.2617 13.7427 30.26 13.7172C30.2558 13.6395 30.2338 13.5639 30.1958 13.4964C30.1578 13.4289 30.1048 13.3714 30.0411 13.3286C30.0201 13.3132 29.9957 13.3032 29.97 13.2997C29.9443 13.2961 29.9182 13.2991 29.8939 13.3083L29.878 13.3178C29.8587 13.3342 29.8434 13.355 29.8335 13.3785C29.8236 13.402 29.8193 13.4276 29.8209 13.4532V13.4532Z"
            fill="#37474F" />
        <path
            d="M26.2989 15.529C26.303 15.6067 26.325 15.6824 26.363 15.7499C26.401 15.8174 26.4541 15.8748 26.5178 15.9176C26.5463 15.9364 26.5794 15.9467 26.6133 15.9474C26.6391 15.9468 26.6643 15.9394 26.6863 15.9257L30.1884 13.8621L30.2043 13.8526C30.2233 13.836 30.2382 13.8152 30.2479 13.7917C30.2576 13.7682 30.2617 13.7427 30.2601 13.7172C30.2559 13.6395 30.2339 13.5639 30.1958 13.4964C30.1578 13.4289 30.1049 13.3714 30.0412 13.3286C30.0202 13.3132 29.9957 13.3032 29.97 13.2997C29.9444 13.2961 29.9182 13.2991 29.8939 13.3083L29.878 13.3178L26.3759 15.3814C26.3507 15.3961 26.3302 15.4177 26.3166 15.4438C26.303 15.47 26.2968 15.4995 26.2989 15.529V15.529Z"
            fill="#FAFAFA" />
        <path
            d="M22.8619 15.3624C23.1099 14.5324 24.1261 13.8459 25.0759 14.118C25.2258 14.1611 25.3698 14.2234 25.5044 14.3035C26.425 14.8451 27.1719 16.1667 27.1719 17.2527C27.1741 17.436 27.1491 17.6186 27.0976 17.7943C26.8482 18.6243 25.8334 19.3068 24.8836 19.036C24.734 18.9929 24.5905 18.9305 24.4564 18.8505C23.5358 18.3088 22.7889 16.9873 22.7889 15.9027C22.7858 15.7198 22.8104 15.5376 22.8619 15.3624V15.3624Z"
            fill="#455A64" />
        <path
            d="M24.455 18.845C23.5343 18.3033 22.7875 16.9818 22.7875 15.8972C22.7875 14.8126 23.5343 14.3711 24.455 14.9128C25.3756 15.4544 26.1225 16.7759 26.1225 17.8619C26.1225 18.9479 25.3769 19.3879 24.455 18.845Z"
            fill="#37474F" />
        <path
            d="M24.4549 16.1139C24.1007 15.904 23.8142 16.0733 23.8142 16.4917C23.8262 16.7187 23.8904 16.9397 24.0018 17.1366C24.1131 17.3335 24.2683 17.5009 24.4549 17.6251C24.8091 17.8336 25.0969 17.6643 25.0969 17.2473C25.0847 17.0202 25.0202 16.7992 24.9086 16.6023C24.7971 16.4054 24.6416 16.238 24.4549 16.1139V16.1139Z"
            fill="#455A64" />
        <path
            d="M24.2361 16.7432C24.2402 16.821 24.2621 16.8967 24.3001 16.9642C24.3381 17.0317 24.3912 17.0891 24.4549 17.1318C24.476 17.1473 24.5004 17.1572 24.5261 17.1608C24.5518 17.1643 24.5779 17.1614 24.6022 17.1522C24.6081 17.1501 24.6135 17.1469 24.6181 17.1427C24.6373 17.1262 24.6525 17.1054 24.6624 17.0819C24.6723 17.0584 24.6767 17.0328 24.6751 17.0073C24.6708 16.9294 24.6486 16.8537 24.6103 16.7862C24.5721 16.7187 24.5189 16.6613 24.4549 16.6187C24.4339 16.6036 24.4097 16.5941 24.3843 16.5908C24.3588 16.5875 24.333 16.5905 24.309 16.5997L24.2931 16.6092C24.2738 16.6253 24.2586 16.6458 24.2487 16.6692C24.2388 16.6925 24.2344 16.7179 24.2361 16.7432V16.7432Z"
            fill="#37474F" />
        <path
            d="M23.7055 17.0618C23.7093 17.1396 23.7311 17.2154 23.7691 17.2829C23.8072 17.3505 23.8604 17.4079 23.9244 17.4504C23.9529 17.4691 23.986 17.4795 24.0199 17.4802C24.0456 17.4795 24.0708 17.472 24.0928 17.4585L24.6022 17.1579C24.6081 17.1558 24.6135 17.1526 24.6182 17.1484C24.6374 17.132 24.6525 17.1111 24.6624 17.0876C24.6724 17.0641 24.6767 17.0386 24.6752 17.013C24.6709 16.9352 24.6487 16.8594 24.6104 16.792C24.5722 16.7245 24.5189 16.6671 24.455 16.6244C24.434 16.6094 24.4098 16.5998 24.3843 16.5965C24.3589 16.5932 24.3331 16.5963 24.3091 16.6054L24.2932 16.6149L23.7824 16.9142C23.7573 16.9289 23.7367 16.9505 23.7231 16.9766C23.7095 17.0028 23.7034 17.0323 23.7055 17.0618V17.0618Z"
            fill="#FAFAFA" />
        <path
            d="M23.7055 17.0616C23.7094 17.1396 23.7312 17.2155 23.7693 17.2833C23.8073 17.351 23.8604 17.4087 23.9244 17.4516C23.9456 17.4666 23.9701 17.4762 23.9957 17.4795C24.0214 17.4828 24.0474 17.4797 24.0716 17.4705L24.0875 17.461C24.1069 17.4447 24.1222 17.4239 24.1321 17.4004C24.142 17.3768 24.1463 17.3512 24.1446 17.3256C24.1401 17.2476 24.1179 17.1718 24.0797 17.1041C24.0414 17.0364 23.9883 16.9787 23.9244 16.9357C23.9031 16.9207 23.8787 16.9111 23.853 16.9078C23.8274 16.9045 23.8013 16.9075 23.7771 16.9167L23.7612 16.9262C23.7421 16.9427 23.7272 16.9636 23.7175 16.9871C23.7078 17.0106 23.7037 17.0362 23.7055 17.0616V17.0616Z"
            fill="#E0E0E0" />
        <path
            d="M28.0128 16.6361C28.8181 16.0092 29.5901 16.0133 29.4508 14.4805C29.3328 13.8034 29.1683 13.7547 28.5222 13.4974C28.2384 13.385 27.859 13.2997 27.6321 13.5651C27.6072 13.5985 27.5797 13.6297 27.5499 13.6586C27.483 13.7021 27.4062 13.7272 27.327 13.7317C27.1757 13.7392 27.032 13.8011 26.9211 13.9063C26.8455 13.9944 26.8163 14.1149 26.742 14.2029C26.6706 14.2719 26.5939 14.3348 26.5125 14.3911C26.4542 14.4427 26.4072 14.5063 26.3745 14.5777C26.3418 14.6491 26.3242 14.7267 26.3228 14.8054C26.3281 14.8955 26.3528 14.9833 26.3949 15.0626C26.4371 15.1419 26.4958 15.2108 26.5669 15.2645L26.9728 15.0262C27.1386 14.9097 27.4809 15.3254 27.3336 15.5448C27.0988 15.8941 28.0128 16.6361 28.0128 16.6361Z"
            fill="#FFEDE5" />
        <path
            d="M18.6341 19.718C18.8915 18.6564 18.9657 16.0038 18.9657 16.0038L11.4335 16.234L11.8434 17.9089C11.911 18.2865 11.947 18.6693 11.9509 19.0531C11.9509 19.0531 12.6818 20.4356 14.8494 20.678C16.1813 20.8076 17.5166 20.4689 18.6341 19.718Z"
            fill="#FFEDE5" />
        <path
            d="M18.9698 16.004C18.979 16.088 18.926 16.8909 18.926 16.8909C17.9629 17.7183 14.8733 18.1367 11.6299 17.0358L10.9427 14.3277C10.9427 14.3277 13.2748 13.2824 11.6988 9.77533L13.3929 9.63993L16.4002 9.56274H17.3872C18.1987 10.3675 18.8845 11.2945 19.4208 12.3115C19.8148 13.0616 20.3162 14.1611 18.9698 16.004Z"
            fill="#455A64" />
        <path
            d="M14.7075 16.0283C13.3505 15.6749 13.0109 14.8096 12.914 14.1732C12.914 14.1732 12.658 16.0283 14.5974 16.4602C16.643 16.9152 17.484 15.2619 17.484 15.2619C17.484 15.2619 16.3445 16.4548 14.7075 16.0283Z"
            fill="#37474F" />
        <path
            d="M3.15573 36.6707C2.75776 36.9673 1.8411 37.039 1.03322 36.6518C0.225345 36.2645 -0.111603 35.1623 0.0396254 34.3106C0.222691 33.272 0.72546 32.7047 0.85281 32.0791C0.980161 31.4535 0.85281 30.5896 1.04649 30.0318C1.12633 29.8173 1.25065 29.6231 1.41093 29.4623C1.57121 29.3015 1.76366 29.1779 1.97509 29.1002C2.10988 29.047 2.25482 29.0261 2.39877 29.039C2.54273 29.0519 2.68187 29.0983 2.80552 29.1746L3.0443 29.3182L3.15573 36.6707Z"
            fill="#263238" />
        <path
            d="M4.10418 32.7102L3.47539 34.6357C3.47539 34.6357 3.87336 36.0087 3.64917 36.3743C3.31886 36.9159 2.73649 37.0107 1.75616 36.7047C0.635214 36.3567 0.371228 35.3208 0.429596 34.5165C0.50919 33.3696 1.54789 32.5071 1.4285 31.4022C1.37013 30.8606 1.44309 30.2553 1.73361 29.7895C2.05862 29.2695 2.5919 29.172 3.14508 29.3413C3.61999 29.4875 4.03653 29.7922 4.43848 30.0779C4.55387 30.1529 4.65837 30.244 4.74889 30.3487C4.82091 30.4467 4.87485 30.5573 4.90808 30.675C4.98081 30.9117 5.00253 31.1616 4.97176 31.4076C4.94257 31.6378 4.79798 31.7718 4.66399 31.9492L4.10418 32.7102Z"
            fill="url(#paint0_linear_62_1829)" />
        <path
            d="M6.81433 31.7991C6.77586 31.7842 4.85499 30.5303 4.64805 30.4356C4.4411 30.3408 3.9317 30.2067 3.43955 31.3699C3.08801 32.1972 3.59343 32.5032 3.59343 32.5032L5.84859 33.8708L6.81433 31.7991Z"
            fill="#FFEDE5" />
        <path
            d="M3.47544 34.6358C3.06901 34.4285 2.61905 34.3257 2.16479 34.3366C2.13107 34.3398 2.09708 34.3345 2.06581 34.3212C2.03455 34.3079 2.00697 34.2869 1.98549 34.2602C1.96401 34.2334 1.94929 34.2017 1.94262 34.1678C1.93595 34.1339 1.93753 34.0989 1.94724 34.0658V34.0658C1.96 34.0263 1.98397 33.9916 2.01609 33.966C2.0482 33.9405 2.08703 33.9252 2.12765 33.9222C2.43143 33.8978 3.169 33.8884 3.65851 34.3C3.78851 34.5681 3.47544 34.6358 3.47544 34.6358Z"
            fill="url(#paint1_linear_62_1829)" />
        <path
            d="M3.70629 33.7556C3.31105 33.5272 2.86694 33.4012 2.41289 33.3887C2.3787 33.3904 2.34462 33.3834 2.31371 33.3684C2.2828 33.3534 2.25602 33.3308 2.23577 33.3026C2.21553 33.2744 2.20245 33.2416 2.1977 33.207C2.19296 33.1724 2.1967 33.1371 2.2086 33.1043V33.1043C2.22322 33.0654 2.24879 33.0318 2.28207 33.0077C2.31535 32.9837 2.35486 32.9701 2.39564 32.9689C2.70075 32.9608 3.43832 32.9919 3.9066 33.4279C4.02201 33.7055 3.70629 33.7556 3.70629 33.7556Z"
            fill="url(#paint2_linear_62_1829)" />
        <path opacity="0.3"
            d="M3.47544 34.6358C3.06901 34.4285 2.61905 34.3257 2.16479 34.3366C2.13107 34.3398 2.09708 34.3345 2.06581 34.3212C2.03455 34.3079 2.00697 34.2869 1.98549 34.2602C1.96401 34.2334 1.94929 34.2017 1.94262 34.1678C1.93595 34.1339 1.93753 34.0989 1.94724 34.0658V34.0658C1.96 34.0263 1.98397 33.9916 2.01609 33.966C2.0482 33.9405 2.08703 33.9252 2.12765 33.9222C2.43143 33.8978 3.169 33.8884 3.65851 34.3C3.78851 34.5681 3.47544 34.6358 3.47544 34.6358Z"
            fill="black" />
        <path opacity="0.3"
            d="M3.70629 33.7556C3.31105 33.5272 2.86694 33.4012 2.41289 33.3887C2.3787 33.3904 2.34462 33.3834 2.31371 33.3684C2.2828 33.3534 2.25602 33.3308 2.23577 33.3026C2.21553 33.2744 2.20245 33.2416 2.1977 33.207C2.19296 33.1724 2.1967 33.1371 2.2086 33.1043V33.1043C2.22322 33.0654 2.24879 33.0318 2.28207 33.0077C2.31535 32.9837 2.35486 32.9701 2.39564 32.9689C2.70075 32.9608 3.43832 32.9919 3.9066 33.4279C4.02201 33.7055 3.70629 33.7556 3.70629 33.7556Z"
            fill="black" />
        <path
            d="M23.2825 36.8796L25.7777 35.8694C25.7353 35.2127 25.5761 34.338 25.7419 32.6197L22.911 32.0699V34.9622L23.2825 36.8796Z"
            fill="#FFEDE5" />
        <path
            d="M30.402 39.1163C30.4684 39.3213 30.456 39.5444 30.3676 39.7405C30.2827 39.9233 29.3474 40.4609 28.0859 40.3742C27.1504 40.3073 26.2494 39.9861 25.4765 39.444C24.9963 39.119 24.4949 39.0581 23.8714 39.0215C23.2479 38.9849 22.4254 38.6667 22.2888 38.3688C22.1521 38.0709 22.31 37.5564 22.31 37.5564L30.402 39.1163Z"
            fill="#263238" />
        <path
            d="M25.3119 35.0974L25.4114 35.0757C25.4655 35.0609 25.522 35.0582 25.5772 35.0676C25.6385 35.0869 25.6929 35.1241 25.7338 35.1746C25.8573 35.3353 25.9648 35.5081 26.0548 35.6905C26.3201 36.1306 26.8746 36.4962 27.4809 36.8279C27.8934 37.054 28.2967 37.2341 28.7225 37.425C29.1484 37.616 29.732 37.746 30.0716 37.9802C30.5665 38.3201 30.6315 39.1758 30.0716 39.513C29.5861 39.8055 28.306 40.121 26.9635 39.7324C26.2312 39.5211 25.4194 38.7236 24.4603 38.6491C23.8501 38.6004 22.6946 38.4257 22.3019 37.9531C22.1574 37.7433 22.351 37.077 22.5102 36.5029C22.684 35.876 22.7477 34.7711 22.952 34.8266C22.952 34.8266 22.8962 34.9823 22.9758 35.0663C23.0554 35.1502 23.3353 35.3181 23.4176 35.3885C23.5551 35.5317 23.6662 35.6992 23.7453 35.8828C23.7781 35.9657 23.8394 36.0335 23.9177 36.0737C24.0212 36.113 24.0981 36.0466 24.183 36.0046C24.2978 35.9522 24.4271 35.9431 24.5478 35.9789C24.5362 35.8545 24.5144 35.7313 24.4828 35.6106C24.4692 35.5725 24.466 35.5313 24.4735 35.4914C24.4902 35.4543 24.5175 35.4232 24.5518 35.4021C24.7815 35.2474 25.0405 35.1436 25.3119 35.0974Z"
            fill="url(#paint3_linear_62_1829)" />
        <path
            d="M26.9105 36.4896C26.9105 36.4896 26.823 36.2499 26.4608 36.1822C26.1823 36.1294 25.6914 36.3379 25.3863 36.5884C25.3576 36.6126 25.3351 36.6436 25.3207 36.6786C25.3064 36.7137 25.3006 36.7517 25.3038 36.7896C25.3071 36.8274 25.3193 36.8639 25.3395 36.8959C25.3596 36.9278 25.3871 36.9543 25.4195 36.973V36.973C25.4611 36.9973 25.5092 37.0075 25.5569 37.0021C25.6046 36.9968 25.6493 36.9761 25.6848 36.9432C26.0207 36.6361 26.4599 36.4735 26.9105 36.4896V36.4896Z"
            fill="url(#paint4_linear_62_1829)" />
        <path
            d="M27.7714 36.9811C27.7113 36.8945 27.6317 36.8239 27.5394 36.7752C27.4471 36.7264 27.3447 36.7009 27.2408 36.7008C27.2408 36.7008 26.5151 36.7225 26.0654 37.149C26.038 37.1725 26.0166 37.2024 26.0029 37.2362C25.9892 37.2699 25.9837 37.3066 25.9868 37.343C25.99 37.3794 26.0016 37.4144 26.0208 37.4453C26.0401 37.4761 26.0663 37.5017 26.0973 37.52V37.52C26.1366 37.5424 26.1819 37.5515 26.2267 37.5462C26.2714 37.5408 26.3134 37.5212 26.3467 37.4902C26.5318 37.3022 26.7559 37.1589 27.0025 37.0708C27.249 36.9827 27.5117 36.952 27.7714 36.9811Z"
            fill="url(#paint5_linear_62_1829)" />
        <path
            d="M28.7227 37.4252C28.6534 37.3449 28.5681 37.2807 28.4724 37.237C28.3767 37.1934 28.273 37.1712 28.1682 37.172C28.1682 37.172 27.4916 37.1977 27.0432 37.6243C27.0155 37.6475 26.9937 37.6773 26.9798 37.711C26.9658 37.7448 26.9601 37.7815 26.9631 37.818C26.9661 37.8545 26.9777 37.8897 26.997 37.9206C27.0163 37.9515 27.0426 37.9771 27.0737 37.9953V37.9953C27.1134 38.0176 27.1588 38.0267 27.2038 38.0213C27.2487 38.016 27.2909 37.9965 27.3245 37.9655C27.5003 37.7706 27.7182 37.6203 27.9609 37.5265C28.2037 37.4327 28.4645 37.398 28.7227 37.4252Z"
            fill="url(#paint6_linear_62_1829)" />
        <path opacity="0.3"
            d="M26.9105 36.4896C26.9105 36.4896 26.823 36.2499 26.4608 36.1822C26.1823 36.1294 25.6914 36.3379 25.3863 36.5884C25.3576 36.6126 25.3351 36.6436 25.3207 36.6786C25.3064 36.7137 25.3006 36.7517 25.3038 36.7896C25.3071 36.8274 25.3193 36.8639 25.3395 36.8959C25.3596 36.9278 25.3871 36.9543 25.4195 36.973V36.973C25.4611 36.9973 25.5092 37.0075 25.5569 37.0021C25.6046 36.9968 25.6493 36.9761 25.6848 36.9432C26.0207 36.6361 26.4599 36.4735 26.9105 36.4896V36.4896Z"
            fill="black" />
        <path opacity="0.3"
            d="M27.7714 36.9811C27.7113 36.8945 27.6317 36.8239 27.5394 36.7752C27.4471 36.7264 27.3447 36.7009 27.2408 36.7008C27.2408 36.7008 26.5151 36.7225 26.0654 37.149C26.038 37.1725 26.0166 37.2024 26.0029 37.2362C25.9892 37.2699 25.9837 37.3066 25.9868 37.343C25.99 37.3794 26.0016 37.4144 26.0208 37.4453C26.0401 37.4761 26.0663 37.5017 26.0973 37.52V37.52C26.1366 37.5424 26.1819 37.5515 26.2267 37.5462C26.2714 37.5408 26.3134 37.5212 26.3467 37.4902C26.5318 37.3022 26.7559 37.1589 27.0025 37.0708C27.249 36.9827 27.5117 36.952 27.7714 36.9811Z"
            fill="black" />
        <path opacity="0.3"
            d="M28.7227 37.4252C28.6534 37.3449 28.5681 37.2807 28.4724 37.237C28.3767 37.1934 28.273 37.1712 28.1682 37.172C28.1682 37.172 27.4916 37.1977 27.0432 37.6243C27.0155 37.6475 26.9937 37.6773 26.9798 37.711C26.9658 37.7448 26.9601 37.7815 26.9631 37.818C26.9661 37.8545 26.9777 37.8897 26.997 37.9206C27.0163 37.9515 27.0426 37.9771 27.0737 37.9953V37.9953C27.1134 38.0176 27.1588 38.0267 27.2038 38.0213C27.2487 38.016 27.2909 37.9965 27.3245 37.9655C27.5003 37.7706 27.7182 37.6203 27.9609 37.5265C28.2037 37.4327 28.4645 37.398 28.7227 37.4252Z"
            fill="black" />
        <path
            d="M24.9883 22.3544C23.0913 21.9198 18.5611 20.953 18.5611 20.953L18.6341 19.7181C16.9958 20.5847 13.5427 20.3396 11.9508 19.0532L11.7001 20.3626C11.0966 21.1002 10.5739 21.9029 10.1414 22.7566C9.77793 23.4918 9.17036 24.6387 9.77528 27.3103C10.1308 28.8797 10.6044 33.0109 10.6044 33.0109L5.9614 31.2642C5.9614 31.2642 5.56343 31.3332 5.22648 32.2215C5.0275 32.7469 4.96117 33.2519 5.16281 33.5133C6.86081 34.8822 9.61211 37.1178 12.3926 38.3716C14.2498 39.0974 15.2367 37.5037 15.327 36.9133C15.6758 34.652 16.0778 27.3861 16.0778 27.3861L22.2861 27.1844C22.0805 28.3841 22.9162 33.0718 22.9162 33.0718C22.9162 33.0718 24.4444 33.7489 25.71 33.0556C25.71 33.0556 26.5563 27.661 26.6386 25.8614C26.7221 23.8547 26.823 22.7755 24.9883 22.3544Z"
            fill="url(#paint7_linear_62_1829)" />
        <path opacity="0.15"
            d="M22.2861 27.1845C22.2861 26.8609 22.497 25.7302 23.2147 25.1277C23.2147 25.1277 22.2304 25.3078 21.7794 27.2008L22.2861 27.1845Z"
            fill="black" />
        <path opacity="0.15"
            d="M10.6044 33.011C10.6044 33.011 10.737 34.7943 11.0713 35.6636C11.0713 35.6636 10.2343 34.12 10.1427 32.835L10.6044 33.011Z"
            fill="black" />
        <path opacity="0.15"
            d="M18.5597 20.9531L18.6327 19.7195C16.9944 20.5848 13.5426 20.3397 11.9521 19.0547L11.7014 20.3627C11.7146 20.3749 12.7361 21.4527 15.3919 21.5922C18.0477 21.7317 18.5597 20.9531 18.5597 20.9531Z"
            fill="black" />
        <path opacity="0.15"
            d="M16.0831 27.3861C16.0611 26.7159 15.9058 26.0572 15.6267 25.4501C15.3475 24.8431 14.9504 24.3003 14.4593 23.8547C14.4593 23.8547 15.8867 24.5318 16.3643 26.6753C16.3643 26.6753 17.4255 26.1702 17.98 24.6563C17.98 24.6563 17.8102 26.1702 16.9559 27.0314L19.5308 27.2737L16.0831 27.3861Z"
            fill="black" />
        <path
            d="M15.2553 0.000249556C14.7103 -0.000640292 14.1704 0.108143 13.6666 0.320378C13.1628 0.532613 12.705 0.844136 12.3192 1.23713C11.9334 1.63013 11.6274 2.09689 11.4185 2.61072C11.2096 3.12456 11.102 3.67538 11.1018 4.2317V4.2317C11.1018 4.78812 11.2093 5.33909 11.4181 5.85308C11.6269 6.36707 11.933 6.83399 12.3187 7.22713C12.7045 7.62027 13.1624 7.93192 13.6663 8.14424C14.1702 8.35656 14.7102 8.46539 15.2553 8.4645V8.4645C16.3538 8.4627 17.4067 8.01591 18.1828 7.22226C18.9588 6.42861 19.3945 5.35301 19.3942 4.2317V4.2317C19.3942 3.11062 18.9583 2.03536 18.1823 1.242C17.4063 0.448647 16.3536 0.00204328 15.2553 0.000249556V0.000249556Z"
            fill="#263238" />
        <path
            d="M10.9242 2.57291C11.0742 2.56591 11.2244 2.57453 11.3726 2.59864C11.4228 2.60201 11.4701 2.62419 11.5053 2.66093C11.5257 2.69131 11.5372 2.72701 11.5384 2.76384C11.5727 2.99892 11.5513 3.23896 11.4761 3.46389C11.4177 3.62096 11.236 3.70085 11.1206 3.81459C10.6722 4.25872 10.6364 4.99398 10.8128 5.60466C10.9892 6.21534 11.3434 6.75967 11.5729 7.35005C11.8024 7.94042 11.9245 8.6513 11.5995 9.24573C11.4734 9.47322 11.2439 9.65195 11.2718 9.92276C11.3036 10.2545 11.5875 10.5714 11.7096 10.8706C11.8435 11.2251 11.8891 11.6081 11.8422 11.985C11.8086 12.4537 11.6381 12.9013 11.3527 13.27C11.1345 13.5295 10.8529 13.7254 10.5365 13.8377C10.22 13.9499 9.88006 13.9746 9.55124 13.9091C9.4126 13.8844 9.28141 13.8274 9.16786 13.7426C8.97286 13.5828 8.89459 13.3215 8.78846 13.0899C8.44754 12.3411 7.72721 11.7968 7.50833 11.002C7.27087 10.1557 7.66619 9.27552 8.15171 8.55652C8.37855 8.22071 8.63193 7.89167 8.74336 7.49899C8.89326 6.96955 8.76193 6.40626 8.72744 5.85516C8.69453 5.31685 8.75516 4.77683 8.90653 4.26008C9.01531 3.88635 9.18378 3.45576 9.46899 3.18766C9.86926 2.81621 10.3839 2.59882 10.9242 2.57291Z"
            fill="#263238" />
        <path
            d="M17.8474 1.93652C18.3011 2.21411 18.8596 3.38537 18.7946 5.83622C18.7389 7.91336 18.0769 8.42384 17.7453 8.57143C17.4136 8.71902 16.7742 8.62424 16.1534 8.51591V9.76301C16.1534 9.76301 17.0077 10.784 16.9493 11.3567C16.891 11.9295 15.7077 12.0581 14.9064 11.4921C14.1052 10.9261 13.4326 9.83883 13.4326 9.83883L13.4592 6.97093C13.4592 6.97093 13.089 7.33653 12.4695 6.78136C11.9615 6.32233 11.7917 5.55187 12.1923 5.14565C12.5929 4.73943 13.3291 4.84911 13.6104 5.43948C13.6104 5.43948 14.6 5.48011 15.9226 4.7462C16.4371 4.46514 16.8795 4.06429 17.2139 3.57613C17.5483 3.08798 17.7654 2.52627 17.8474 1.93652V1.93652Z"
            fill="#FFEDE5" />
        <path
            d="M16.5237 5.30539C16.5239 5.35672 16.5093 5.40699 16.4817 5.44991C16.4541 5.49283 16.4148 5.52651 16.3686 5.54675C16.3223 5.56698 16.2713 5.57287 16.2218 5.56369C16.1723 5.5545 16.1266 5.53065 16.0903 5.4951C16.0541 5.45955 16.0288 5.41388 16.0178 5.36379C16.0068 5.3137 16.0105 5.26141 16.0284 5.21345C16.0463 5.16548 16.0777 5.12397 16.1186 5.09409C16.1595 5.0642 16.2081 5.04727 16.2584 5.04541C16.3269 5.04535 16.3928 5.07239 16.4423 5.12086C16.4918 5.16933 16.5209 5.23546 16.5237 5.30539Z"
            fill="#263238" />
        <g style="mix-blend-mode:multiply" opacity="0.5">
            <g style="mix-blend-mode:multiply" opacity="0.5">
                <path
                    d="M16.582 7.06714L17.1749 7.26212C17.1641 7.30276 17.1454 7.34074 17.1199 7.37382C17.0944 7.40689 17.0626 7.43436 17.0264 7.45459C16.9903 7.47482 16.9505 7.48739 16.9094 7.49155C16.8684 7.4957 16.8269 7.49136 16.7876 7.47877C16.7076 7.45091 16.6414 7.39235 16.603 7.3155C16.5646 7.23866 16.5571 7.14957 16.582 7.06714Z"
                    fill="#F28F8F" />
            </g>
        </g>
        <path
            d="M18.6261 4.51214L18.1101 4.14384C18.1317 4.10817 18.1602 4.0774 18.194 4.05341C18.2277 4.02942 18.2658 4.01273 18.3061 4.00435C18.3463 3.99598 18.3879 3.99611 18.4281 4.00473C18.4683 4.01335 18.5063 4.03028 18.5399 4.05447C18.6084 4.10538 18.6555 4.18097 18.6715 4.26594C18.6875 4.35091 18.6713 4.43891 18.6261 4.51214Z"
            fill="#263238" />
        <path
            d="M18.5041 5.12398C18.5045 5.17537 18.4902 5.22577 18.4628 5.26887C18.4353 5.31196 18.3961 5.34585 18.3499 5.36629C18.3037 5.38673 18.2526 5.39282 18.2031 5.38379C18.1535 5.37475 18.1076 5.35101 18.0712 5.31551C18.0348 5.28002 18.0095 5.23436 17.9983 5.18424C17.9872 5.13411 17.9908 5.08176 18.0087 5.03372C18.0266 4.98568 18.0579 4.94408 18.0989 4.91414C18.1398 4.88419 18.1884 4.86722 18.2387 4.86536C18.3071 4.86529 18.3728 4.89214 18.4223 4.94032C18.4717 4.9885 18.501 5.05429 18.5041 5.12398Z"
            fill="#263238" />
        <g style="mix-blend-mode:multiply" opacity="0.5">
            <g style="mix-blend-mode:multiply" opacity="0.5">
                <path d="M17.2969 4.9696L17.3314 6.54303L18.1433 6.28982L17.2969 4.9696Z"
                    fill="#F28F8F" />
            </g>
        </g>
        <g style="mix-blend-mode:multiply" opacity="0.5">
            <g style="mix-blend-mode:multiply" opacity="0.5">
                <path
                    d="M16.1547 8.51619C15.4994 8.42683 14.1543 8.02602 13.9473 7.48169C14.0307 7.75676 14.1946 7.99917 14.4169 8.17632C14.8176 8.53109 16.1521 8.93731 16.1521 8.93731L16.1547 8.51619Z"
                    fill="#F28F8F" />
            </g>
        </g>
        <path
            d="M11.6988 9.77661C10.4147 9.87004 9.8854 10.0366 9.17038 11.6561C8.527 13.1117 6.98818 16.8787 6.60348 17.7182C6.21878 18.5577 6.14582 18.8949 6.47082 19.7737C6.73614 20.49 8.90374 24.605 9.1412 25.2048C9.37865 25.8047 9.48345 26.4113 9.88806 27.11C10.2927 27.8087 10.9321 28.4911 11.4375 28.6523C12.187 28.8919 13.162 28.5588 13.1899 28.0971C13.2177 27.6354 12.0902 26.8649 11.7837 25.8399C11.9876 25.9766 12.2024 26.0957 12.4258 26.196C12.7296 26.3233 13.0692 26.2948 13.17 26.1188C13.2708 25.9428 12.967 25.8358 12.6964 25.5609C12.5346 25.3971 12.248 25.0288 11.8819 24.7038C11.6338 24.4844 11.2279 24.4195 11.0448 24.1784C10.9467 24.0498 10.5009 22.9354 10.1653 21.9429C9.75142 20.712 9.2062 19.0736 9.2062 19.0736L11.4375 14.3344C11.4375 14.3344 13.1872 12.5524 11.6988 9.77661Z"
            fill="#FFEDE5" />
        <path
            d="M9.13725 25.2047C9.13725 25.2047 9.65063 24.1445 11.0409 24.1783L10.6734 23.3442C10.6734 23.3442 9.31633 23.4417 8.74458 24.3801L9.13725 25.2047Z"
            fill="#37474F" />
        <path
            d="M8.98735 24.3041L9.28583 24.7361C9.30744 24.7675 9.33502 24.7941 9.36693 24.8144C9.39884 24.8347 9.43443 24.8482 9.47158 24.8542C9.50872 24.8601 9.54665 24.8583 9.58312 24.849C9.61958 24.8396 9.65382 24.8229 9.6838 24.7997L10.2144 24.3935C10.2761 24.3453 10.3174 24.2749 10.33 24.1966C10.3426 24.1184 10.3254 24.0382 10.2821 23.9724L10.0048 23.5553C9.98397 23.5231 9.95691 23.4956 9.9253 23.4745C9.89368 23.4533 9.85818 23.4389 9.82095 23.4322C9.78371 23.4255 9.74553 23.4266 9.70873 23.4354C9.67192 23.4442 9.63726 23.4606 9.60686 23.4836L9.04439 23.8898C8.98315 23.9371 8.94276 24.0073 8.93207 24.0849C8.92138 24.1626 8.94126 24.2414 8.98735 24.3041V24.3041Z"
            fill="#263238" />
        <path
            d="M8.88775 24.2935L9.18889 24.7255C9.21061 24.7567 9.23825 24.7832 9.27016 24.8034C9.30208 24.8236 9.33763 24.837 9.37472 24.843C9.41181 24.8489 9.44969 24.8472 9.48612 24.8379C9.52256 24.8287 9.55681 24.8121 9.58686 24.7891L10.1175 24.3829C10.1791 24.3347 10.2205 24.2644 10.2333 24.1862C10.2461 24.1081 10.2294 24.0278 10.1865 23.9618L9.90921 23.5447C9.88823 23.5127 9.86111 23.4853 9.82949 23.4643C9.79787 23.4432 9.7624 23.4289 9.72523 23.4222C9.68805 23.4155 9.64992 23.4165 9.61315 23.4253C9.57638 23.434 9.54171 23.4502 9.51124 23.473L8.94878 23.886C8.88851 23.9323 8.8484 24.0009 8.837 24.0771C8.8256 24.1532 8.84381 24.2309 8.88775 24.2935Z"
            fill="#455A64" />
        <path
            d="M10.1321 24.1512C10.1254 24.2047 10.0982 24.2534 10.0565 24.2866L9.52583 24.6928C9.50739 24.7078 9.486 24.7186 9.46311 24.7245C9.44022 24.7303 9.41637 24.731 9.39317 24.7266C9.37042 24.7231 9.34861 24.7149 9.32902 24.7025C9.30943 24.6902 9.29245 24.674 9.27909 24.6549L8.97663 24.2216C8.95111 24.1856 8.93974 24.1411 8.94479 24.097C8.94659 24.0702 8.95419 24.0442 8.96704 24.0208C8.97988 23.9974 8.99766 23.9772 9.01908 23.9616L9.58154 23.5554C9.60035 23.5411 9.62185 23.531 9.64468 23.5257C9.66751 23.5203 9.69118 23.5198 9.7142 23.5242C9.73692 23.5283 9.7586 23.537 9.77797 23.5498C9.79734 23.5626 9.814 23.5792 9.82696 23.5987L10.1042 24.0158C10.1302 24.0556 10.1415 24.1036 10.136 24.1512H10.1321Z"
            fill="url(#paint8_linear_62_1829)" />
    </g>
</svg>
